<svg width="48" height="48" viewBox="0 0 48 48" fill="none" xmlns="http://www.w3.org/2000/svg"><path d="M18 8C10.268 8 4 13.372 4 20C4 24.088 6.088 27.736 9.5 30.088L8 38L16.088 33.5C16.688 33.624 17.336 33.688 18 33.688C18.664 33.688 19.312 33.624 19.912 33.5C18.688 31.624 18 29.4 18 27C18 20.372 24.268 15 32 15C32.664 15 33.312 15.064 33.912 15.188C31.312 10.936 25.064 8 18 8Z" fill="#FFFFFF"/><path d="M32 17C25.372 17 20 21.476 20 27C20 32.524 25.372 37 32 37C32.776 37 33.536 36.924 34.272 36.78L41 40L39.78 33.772C42.424 31.924 44 29.612 44 27C44 21.476 38.628 17 32 17Z" fill="#FFFFFF"/></svg>
