<svg width="48" height="48" viewBox="0 0 48 48" fill="none" xmlns="http://www.w3.org/2000/svg">
  <path d="M4 10C4 8.89543 4.89543 8 6 8H18C19.1046 8 20 8.89543 20 10V22C20 23.1046 19.1046 24 18 24H6C4.89543 24 4 23.1046 4 22V10Z" stroke="#17211F" stroke-width="3" stroke-linejoin="round"/>
  <path d="M28 10C28 8.89543 28.8954 8 30 8H42C43.1046 8 44 8.89543 44 10V22C44 23.1046 43.1046 24 42 24H30C28.8954 24 28 23.1046 28 22V10Z" stroke="#17211F" stroke-width="3" stroke-linejoin="round"/>
  <path d="M4 34C4 32.8954 4.89543 32 6 32H18C19.1046 32 20 32.8954 20 34V46C20 47.1046 19.1046 48 18 48H6C4.89543 48 4 47.1046 4 46V34Z" stroke="#17211F" stroke-width="3" stroke-linejoin="round"/>
  <path d="M34 32V38" stroke="#17211F" stroke-width="3" stroke-linecap="round" stroke-linejoin="round"/>
  <path d="M28 32V34" stroke="#17211F" stroke-width="3" stroke-linecap="round" stroke-linejoin="round"/>
  <path d="M28 40V44" stroke="#17211F" stroke-width="3" stroke-linecap="round" stroke-linejoin="round"/>
  <path d="M44 32V34" stroke="#17211F" stroke-width="3" stroke-linecap="round" stroke-linejoin="round"/>
  <path d="M44 40V44" stroke="#17211F" stroke-width="3" stroke-linecap="round" stroke-linejoin="round"/>
  <path d="M34 44V48" stroke="#17211F" stroke-width="3" stroke-linecap="round" stroke-linejoin="round"/>
  <path d="M10 14H14V18H10V14Z" fill="#17211F"/>
  <path d="M34 14H38V18H34V14Z" fill="#17211F"/>
  <path d="M10 38H14V42H10V38Z" fill="#17211F"/>
</svg>
